# xmcd
#
# Track frame offsets: 
#        150
#        21334
#        37106
#        58301
#        79800
#        97379
#        118897
#        134124
#        143901
#        164011
#        183790
#        202504
#        222308
#
# Disc length: 3292 seconds
#
# Revision: 3
# Processed by: cddbd v1.5.2PL0 Copyright (c) Steve Scherf et al.
# Submitted via: ExactAudioCopyFreeDBPlugin 1.0
#
DISCID=cd0cda0d
DTITLE=Ledfoot - Gothic Blues. Volume One
DYEAR=2012
DGENRE=Acoustic
TTITLE0=I Don't Want This Worry Anymore
TTITLE1=Save My Ass
TTITLE2=How You Lose Your Innocence
TTITLE3=The Cold Light of Day
TTITLE4=Purgatory Road
TTITLE5=Sound of the Sun Going Down
TTITLE6=Hanging Tree
TTITLE7=Digging My Own Grave
TTITLE8=I'll Dream of You Tonight
TTITLE9=Damned
TTITLE10=Mean to Me
TTITLE11=Unforgiven
TTITLE12=Wicked State of Mind
EXTD=YEAR: 2012
EXTT0=
EXTT1=
EXTT2=
EXTT3=
EXTT4=
EXTT5=
EXTT6=
EXTT7=
EXTT8=
EXTT9=
EXTT10=
EXTT11=
EXTT12=
PLAYORDER=
